grf
version=1
nRows=7
nColumns=37
inDegrees=no
endheader
time	ground_force_1_vx	ground_force_1_vy	ground_force_1_vz	ground_force_1_px	ground_force_1_py	ground_force_1_pz	ground_moment_1_mx	ground_moment_1_my	ground_moment_1_mz	ground_force_2_vx	ground_force_2_vy	ground_force_2_vz	ground_force_2_px	ground_force_2_py	ground_force_2_pz	ground_moment_2_mx	ground_moment_2_my	ground_moment_2_mz	ground_force_3_vx	ground_force_3_vy	ground_force_3_vz	ground_force_3_px	ground_force_3_py	ground_force_3_pz	ground_moment_3_mx	ground_moment_3_my	ground_moment_3_mz	ground_force_4_vx	ground_force_4_vy	ground_force_4_vz	ground_force_4_px	ground_force_4_py	ground_force_4_pz	ground_moment_4_mx	ground_moment_4_my	ground_moment_4_mz
      1.53000000	      0.00000000	     -0.00000000	      0.00000000	      0.00000000	      0.00000000	      0.00000000	      0.00000000	      0.00000000	      0.00000000	     -1.24211121	      5.57406521	   -326.01214600	   -339.75970418	  -1068.28346760	      0.00000000	      0.00000000	     -0.00000000	   4963.33574043	      3.67174799	     -7.37809642	   -292.47842407	   -336.72041840	   -733.71203025	      0.00000000	      0.00000000	     -0.00000000	  -4556.86095333	      0.00000000	     -0.00000000	      0.00000000	      0.00000000	      0.00000000	      0.00000000	      0.00000000	      0.00000000	      0.00000000
      1.54000000	      0.00000000	     -0.00000000	      0.00000000	      0.00000000	      0.00000000	      0.00000000	      0.00000000	      0.00000000	      0.00000000	     -1.48249435	      5.53309250	   -329.29864502	   -338.80680505	  -1069.88198555	      0.00000000	      0.00000000	      0.00000000	   4906.64155387	      3.77354583	     -7.21483502	   -292.82934570	   -336.85494487	   -732.99606908	      0.00000000	      0.00000000	      0.00000000	  -4461.38984951	      0.00000000	     -0.00000000	      0.00000000	      0.00000000	      0.00000000	      0.00000000	      0.00000000	      0.00000000	      0.00000000
      1.55000000	      0.00000000	     -0.00000000	      0.00000000	      0.00000000	      0.00000000	      0.00000000	      0.00000000	      0.00000000	      0.00000000	     -1.66847968	      5.45140982	   -331.34005737	   -339.37431294	  -1069.89024643	      0.00000000	      0.00000000	     -0.00000000	   4883.55368617	      3.54843076	     -7.32383521	   -292.02462769	   -336.89175223	   -733.62060707	      0.00000000	      0.00000000	     -0.00000000	  -4479.65017753	      0.00000000	     -0.00000000	      0.00000000	      0.00000000	      0.00000000	      0.00000000	      0.00000000	      0.00000000	      0.00000000
      1.56000000	      0.00000000	     -0.00000000	      0.00000000	      0.00000000	      0.00000000	      0.00000000	      0.00000000	      0.00000000	      0.00000000	     -1.78421021	      5.56691074	   -334.62319946	   -339.14013811	  -1069.11668927	      0.00000000	      0.00000000	      0.00000000	   4690.99452102	      3.50050292	     -7.14694340	   -290.81518555	   -336.27020079	   -733.33211064	      0.00000000	      0.00000000	     -0.00000000	  -4492.59113691	      0.00000000	     -0.00000000	      0.00000000	      0.00000000	      0.00000000	      0.00000000	      0.00000000	      0.00000000	      0.00000000
      1.57000000	      0.00000000	     -0.00000000	      0.00000000	      0.00000000	      0.00000000	      0.00000000	      0.00000000	      0.00000000	      0.00000000	     -1.84807384	      5.84188938	   -336.06597900	   -338.15540459	  -1069.01572836	      0.00000000	      0.00000000	      0.00000000	   4941.22892843	      3.81456311	     -7.33070025	   -290.65423584	   -336.23019053	   -732.21727882	      0.00000000	      0.00000000	     -0.00000000	  -4668.57311205	      0.00000000	     -0.00000000	      0.00000000	      0.00000000	      0.00000000	      0.00000000	      0.00000000	      0.00000000	      0.00000000
      1.58000000	      0.00000000	     -0.00000000	      0.00000000	      0.00000000	      0.00000000	      0.00000000	      0.00000000	      0.00000000	      0.00000000	     -2.76552582	      5.54183769	   -337.67126465	   -337.32215170	  -1068.68319245	      0.00000000	     -0.00000000	      0.00000000	   4843.55886741	      3.89573320	     -7.24988590	   -289.92590332	   -336.94200333	   -732.56661767	      0.00000000	      0.00000000	     -0.00000000	  -4619.69489225	      0.00000000	     -0.00000000	      0.00000000	      0.00000000	      0.00000000	      0.00000000	      0.00000000	      0.00000000	      0.00000000
      1.59000000	      0.00000000	     -0.00000000	      0.00000000	      0.00000000	      0.00000000	      0.00000000	      0.00000000	      0.00000000	      0.00000000	     -3.40624237	      5.90689516	   -338.98843384	   -337.36357371	  -1069.46218640	      0.00000000	      0.00000000	      0.00000000	   4900.36756204	      3.65433919	     -6.87364133	   -288.87716675	   -335.95073011	   -733.80466174	      0.00000000	      0.00000000	     -0.00000000	  -4535.48214271	      0.00000000	     -0.00000000	      0.00000000	      0.00000000	      0.00000000	      0.00000000	      0.00000000	      0.00000000	      0.00000000
